<?xml version="1.0" encoding="us-ascii" standalone="no"?><svg xmlns="http://www.w3.org/2000/svg" xmlns:xlink="http://www.w3.org/1999/xlink" contentStyleType="text/css" height="776px" preserveAspectRatio="none" style="width:975px;height:776px;background:#0B58A8;" version="1.1" viewBox="0 0 975 776" width="975px" zoomAndPan="magnify"><defs/><g><rect fill="#0B58A8" height="776" style="stroke:none;stroke-width:1.0;" width="975" x="0" y="0"/><line style="stroke:#FFFFFF;stroke-width:1.0;" x1="28" x2="28" y1="82.2969" y2="694.8203"/><line style="stroke:#FFFFFF;stroke-width:1.0;" x1="236" x2="236" y1="82.2969" y2="694.8203"/><line style="stroke:#FFFFFF;stroke-width:1.0;" x1="478" x2="478" y1="82.2969" y2="694.8203"/><line style="stroke:#FFFFFF;stroke-width:1.0;" x1="940.5" x2="940.5" y1="82.2969" y2="694.8203"/><text fill="#FFFFFF" font-family="Verdana" font-size="14" lengthAdjust="spacing" textLength="31" x="10" y="78.9951">User</text><ellipse cx="28.5" cy="14" fill="#0B58A8" rx="8" ry="8" style="stroke:#FFFFFF;stroke-width:1.0;"/><path d="M28.5,22 L28.5,49 M15.5,30 L41.5,30 M28.5,49 L15.5,64 M28.5,49 L41.5,64 " fill="none" style="stroke:#FFFFFF;stroke-width:1.0;"/><text fill="#FFFFFF" font-family="Verdana" font-size="14" lengthAdjust="spacing" textLength="31" x="10" y="706.8154">User</text><ellipse cx="28.5" cy="719.1172" fill="#0B58A8" rx="8" ry="8" style="stroke:#FFFFFF;stroke-width:1.0;"/><path d="M28.5,727.1172 L28.5,754.1172 M15.5,735.1172 L41.5,735.1172 M28.5,754.1172 L15.5,769.1172 M28.5,754.1172 L41.5,769.1172 " fill="none" style="stroke:#FFFFFF;stroke-width:1.0;"/><rect fill="#0B58A8" height="30.2969" style="stroke:#FFFFFF;stroke-width:1.0;" width="57" x="210" y="47"/><rect fill="#0B58A8" height="30.2969" style="stroke:#FFFFFF;stroke-width:1.0;" width="57" x="206" y="51"/><text fill="#FFFFFF" font-family="Verdana" font-size="14" lengthAdjust="spacing" textLength="43" x="213" y="70.9951">Model</text><rect fill="#0B58A8" height="30.2969" style="stroke:#FFFFFF;stroke-width:1.0;" width="57" x="210" y="693.8203"/><rect fill="#0B58A8" height="30.2969" style="stroke:#FFFFFF;stroke-width:1.0;" width="57" x="206" y="697.8203"/><text fill="#FFFFFF" font-family="Verdana" font-size="14" lengthAdjust="spacing" textLength="43" x="213" y="717.8154">Model</text><path d="M437,56 L520,56 C525,56 525,69.1484 525,69.1484 C525,69.1484 525,82.2969 520,82.2969 L437,82.2969 C432,82.2969 432,69.1484 432,69.1484 C432,69.1484 432,56 437,56 " fill="#0B58A8" style="stroke:#FFFFFF;stroke-width:1.0;"/><path d="M520,56 C515,56 515,69.1484 515,69.1484 C515,82.2969 520,82.2969 520,82.2969 " fill="none" style="stroke:#FFFFFF;stroke-width:1.0;"/><text fill="#FFFFFF" font-family="Verdana" font-size="14" lengthAdjust="spacing" textLength="73" x="437" y="73.9951">Recording</text><path d="M437,693.8203 L520,693.8203 C525,693.8203 525,706.9688 525,706.9688 C525,706.9688 525,720.1172 520,720.1172 L437,720.1172 C432,720.1172 432,706.9688 432,706.9688 C432,706.9688 432,693.8203 437,693.8203 " fill="#0B58A8" style="stroke:#FFFFFF;stroke-width:1.0;"/><path d="M520,693.8203 C515,693.8203 515,706.9688 515,706.9688 C515,720.1172 520,720.1172 520,720.1172 " fill="none" style="stroke:#FFFFFF;stroke-width:1.0;"/><text fill="#FFFFFF" font-family="Verdana" font-size="14" lengthAdjust="spacing" textLength="73" x="437" y="711.8154">Recording</text><text fill="#FFFFFF" font-family="Verdana" font-size="14" lengthAdjust="spacing" textLength="40" x="917.5" y="78.9951">State</text><path d="M922.5,30 C922.5,20 940.5,20 940.5,20 C940.5,20 958.5,20 958.5,30 L958.5,56 C958.5,66 940.5,66 940.5,66 C940.5,66 922.5,66 922.5,56 L922.5,30 " fill="#0B58A8" style="stroke:#FFFFFF;stroke-width:1.5;"/><path d="M922.5,30 C922.5,40 940.5,40 940.5,40 C940.5,40 958.5,40 958.5,30 " fill="none" style="stroke:#FFFFFF;stroke-width:1.5;"/><text fill="#FFFFFF" font-family="Verdana" font-size="14" lengthAdjust="spacing" textLength="40" x="917.5" y="706.8154">State</text><path d="M922.5,720.1172 C922.5,710.1172 940.5,710.1172 940.5,710.1172 C940.5,710.1172 958.5,710.1172 958.5,720.1172 L958.5,746.1172 C958.5,756.1172 940.5,756.1172 940.5,756.1172 C940.5,756.1172 922.5,756.1172 922.5,746.1172 L922.5,720.1172 " fill="#0B58A8" style="stroke:#FFFFFF;stroke-width:1.5;"/><path d="M922.5,720.1172 C922.5,730.1172 940.5,730.1172 940.5,730.1172 C940.5,730.1172 958.5,730.1172 958.5,720.1172 " fill="none" style="stroke:#FFFFFF;stroke-width:1.5;"/><polygon fill="#FFFFFF" points="224.5,109.4297,234.5,113.4297,224.5,117.4297,228.5,113.4297" style="stroke:#FFFFFF;stroke-width:1.0;"/><line style="stroke:#FFFFFF;stroke-width:1.0;stroke-dasharray:2.0,2.0;" x1="28.5" x2="230.5" y1="113.4297" y2="113.4297"/><text fill="#FFFFFF" font-family="Verdana" font-size="13" lengthAdjust="spacing" textLength="134" x="35.5" y="108.3638">User starts recording</text><polygon fill="#FFFFFF" points="466.5,138.5625,476.5,142.5625,466.5,146.5625,470.5,142.5625" style="stroke:#FFFFFF;stroke-width:1.0;"/><line style="stroke:#FFFFFF;stroke-width:1.0;stroke-dasharray:2.0,2.0;" x1="236.5" x2="472.5" y1="142.5625" y2="142.5625"/><text fill="#FFFFFF" font-family="Verdana" font-size="13" lengthAdjust="spacing" textLength="170" x="243.5" y="137.4966">Model creates new service</text><polygon fill="#FFFFFF" points="247.5,167.6953,237.5,171.6953,247.5,175.6953,243.5,171.6953" style="stroke:#FFFFFF;stroke-width:1.0;"/><line style="stroke:#FFFFFF;stroke-width:1.0;stroke-dasharray:2.0,2.0;" x1="241.5" x2="477.5" y1="171.6953" y2="171.6953"/><text fill="#FFFFFF" font-family="Verdana" font-size="13" lengthAdjust="spacing" textLength="160" x="253.5" y="166.6294">Model binds to Recording</text><polygon fill="#FFFFFF" points="928.5,196.8281,938.5,200.8281,928.5,204.8281,932.5,200.8281" style="stroke:#FFFFFF;stroke-width:1.0;"/><line style="stroke:#FFFFFF;stroke-width:1.0;stroke-dasharray:2.0,2.0;" x1="478.5" x2="934.5" y1="200.8281" y2="200.8281"/><text fill="#FFFFFF" font-family="Verdana" font-size="13" lengthAdjust="spacing" textLength="431" x="485.5" y="195.7622">State is set to `RECORDING` to indicate that the recording is active</text><polygon fill="#FFFFFF" points="247.5,225.9609,237.5,229.9609,247.5,233.9609,243.5,229.9609" style="stroke:#FFFFFF;stroke-width:1.0;"/><line style="stroke:#FFFFFF;stroke-width:1.0;stroke-dasharray:2.0,2.0;" x1="241.5" x2="477.5" y1="229.9609" y2="229.9609"/><text fill="#FFFFFF" font-family="Verdana" font-size="13" lengthAdjust="spacing" textLength="151" x="253.5" y="224.895">State mirrored to Model</text><polygon fill="#FFFFFF" points="224.5,255.0938,234.5,259.0938,224.5,263.0938,228.5,259.0938" style="stroke:#FFFFFF;stroke-width:1.0;"/><line style="stroke:#FFFFFF;stroke-width:1.0;stroke-dasharray:2.0,2.0;" x1="28.5" x2="230.5" y1="259.0938" y2="259.0938"/><text fill="#FFFFFF" font-family="Verdana" font-size="13" lengthAdjust="spacing" textLength="168" x="35.5" y="254.0278">User pauses the recording</text><polygon fill="#FFFFFF" points="466.5,284.2266,476.5,288.2266,466.5,292.2266,470.5,288.2266" style="stroke:#FFFFFF;stroke-width:1.0;"/><line style="stroke:#FFFFFF;stroke-width:1.0;stroke-dasharray:2.0,2.0;" x1="236.5" x2="472.5" y1="288.2266" y2="288.2266"/><text fill="#FFFFFF" font-family="Verdana" font-size="13" lengthAdjust="spacing" textLength="202" x="243.5" y="283.1606">Commands Recording to pause</text><polygon fill="#FFFFFF" points="928.5,313.3594,938.5,317.3594,928.5,321.3594,932.5,317.3594" style="stroke:#FFFFFF;stroke-width:1.0;"/><line style="stroke:#FFFFFF;stroke-width:1.0;stroke-dasharray:2.0,2.0;" x1="478.5" x2="934.5" y1="317.3594" y2="317.3594"/><text fill="#FFFFFF" font-family="Verdana" font-size="13" lengthAdjust="spacing" textLength="414" x="485.5" y="312.2935">State is set to `PAUSED` to indicate that the recording is paused</text><line style="stroke:#FFFFFF;stroke-width:1.0;stroke-dasharray:2.0,2.0;" x1="478.5" x2="520.5" y1="346.4922" y2="346.4922"/><line style="stroke:#FFFFFF;stroke-width:1.0;stroke-dasharray:2.0,2.0;" x1="520.5" x2="520.5" y1="346.4922" y2="359.4922"/><line style="stroke:#FFFFFF;stroke-width:1.0;stroke-dasharray:2.0,2.0;" x1="479.5" x2="520.5" y1="359.4922" y2="359.4922"/><polygon fill="#FFFFFF" points="489.5,355.4922,479.5,359.4922,489.5,363.4922,485.5,359.4922" style="stroke:#FFFFFF;stroke-width:1.0;"/><text fill="#FFFFFF" font-family="Verdana" font-size="13" lengthAdjust="spacing" textLength="190" x="485.5" y="341.4263">Actually pauses the recording</text><polygon fill="#FFFFFF" points="224.5,384.625,234.5,388.625,224.5,392.625,228.5,388.625" style="stroke:#FFFFFF;stroke-width:1.0;"/><line style="stroke:#FFFFFF;stroke-width:1.0;stroke-dasharray:2.0,2.0;" x1="28.5" x2="230.5" y1="388.625" y2="388.625"/><text fill="#FFFFFF" font-family="Verdana" font-size="13" lengthAdjust="spacing" textLength="184" x="35.5" y="383.5591">User continues the recording</text><polygon fill="#FFFFFF" points="466.5,413.7578,476.5,417.7578,466.5,421.7578,470.5,417.7578" style="stroke:#FFFFFF;stroke-width:1.0;"/><line style="stroke:#FFFFFF;stroke-width:1.0;stroke-dasharray:2.0,2.0;" x1="236.5" x2="472.5" y1="417.7578" y2="417.7578"/><text fill="#FFFFFF" font-family="Verdana" font-size="13" lengthAdjust="spacing" textLength="218" x="243.5" y="412.6919">Commands Recording to continue</text><polygon fill="#FFFFFF" points="928.5,442.8906,938.5,446.8906,928.5,450.8906,932.5,446.8906" style="stroke:#FFFFFF;stroke-width:1.0;"/><line style="stroke:#FFFFFF;stroke-width:1.0;stroke-dasharray:2.0,2.0;" x1="478.5" x2="934.5" y1="446.8906" y2="446.8906"/><text fill="#FFFFFF" font-family="Verdana" font-size="13" lengthAdjust="spacing" textLength="431" x="485.5" y="441.8247">State is set to `RECORDING` to indicate that the recording is active</text><line style="stroke:#FFFFFF;stroke-width:1.0;stroke-dasharray:2.0,2.0;" x1="478.5" x2="520.5" y1="476.0234" y2="476.0234"/><line style="stroke:#FFFFFF;stroke-width:1.0;stroke-dasharray:2.0,2.0;" x1="520.5" x2="520.5" y1="476.0234" y2="489.0234"/><line style="stroke:#FFFFFF;stroke-width:1.0;stroke-dasharray:2.0,2.0;" x1="479.5" x2="520.5" y1="489.0234" y2="489.0234"/><polygon fill="#FFFFFF" points="489.5,485.0234,479.5,489.0234,489.5,493.0234,485.5,489.0234" style="stroke:#FFFFFF;stroke-width:1.0;"/><text fill="#FFFFFF" font-family="Verdana" font-size="13" lengthAdjust="spacing" textLength="212" x="485.5" y="470.9575">Actually continues with recording</text><polygon fill="#FFFFFF" points="224.5,514.1563,234.5,518.1563,224.5,522.1563,228.5,518.1563" style="stroke:#FFFFFF;stroke-width:1.0;"/><line style="stroke:#FFFFFF;stroke-width:1.0;stroke-dasharray:2.0,2.0;" x1="28.5" x2="230.5" y1="518.1563" y2="518.1563"/><text fill="#FFFFFF" font-family="Verdana" font-size="13" lengthAdjust="spacing" textLength="132" x="35.5" y="513.0903">User stops recording</text><polygon fill="#FFFFFF" points="466.5,543.2891,476.5,547.2891,466.5,551.2891,470.5,547.2891" style="stroke:#FFFFFF;stroke-width:1.0;"/><line style="stroke:#FFFFFF;stroke-width:1.0;stroke-dasharray:2.0,2.0;" x1="236.5" x2="472.5" y1="547.2891" y2="547.2891"/><text fill="#FFFFFF" font-family="Verdana" font-size="13" lengthAdjust="spacing" textLength="191" x="243.5" y="542.2231">Commands Recording to stop</text><polygon fill="#FFFFFF" points="928.5,572.4219,938.5,576.4219,928.5,580.4219,932.5,576.4219" style="stroke:#FFFFFF;stroke-width:1.0;"/><line style="stroke:#FFFFFF;stroke-width:1.0;stroke-dasharray:2.0,2.0;" x1="478.5" x2="934.5" y1="576.4219" y2="576.4219"/><text fill="#FFFFFF" font-family="Verdana" font-size="13" lengthAdjust="spacing" textLength="438" x="485.5" y="571.356">State is set to `IDLE` to indicate that the recording will be destroyed</text><line style="stroke:#FFFFFF;stroke-width:1.0;stroke-dasharray:2.0,2.0;" x1="478.5" x2="520.5" y1="605.5547" y2="605.5547"/><line style="stroke:#FFFFFF;stroke-width:1.0;stroke-dasharray:2.0,2.0;" x1="520.5" x2="520.5" y1="605.5547" y2="618.5547"/><line style="stroke:#FFFFFF;stroke-width:1.0;stroke-dasharray:2.0,2.0;" x1="479.5" x2="520.5" y1="618.5547" y2="618.5547"/><polygon fill="#FFFFFF" points="489.5,614.5547,479.5,618.5547,489.5,622.5547,485.5,618.5547" style="stroke:#FFFFFF;stroke-width:1.0;"/><text fill="#FFFFFF" font-family="Verdana" font-size="13" lengthAdjust="spacing" textLength="106" x="485.5" y="600.4888">Running cleanup</text><polygon fill="#FFFFFF" points="466.5,643.6875,476.5,647.6875,466.5,651.6875,470.5,647.6875" style="stroke:#FFFFFF;stroke-width:1.0;"/><line style="stroke:#FFFFFF;stroke-width:1.0;stroke-dasharray:2.0,2.0;" x1="236.5" x2="472.5" y1="647.6875" y2="647.6875"/><text fill="#FFFFFF" font-family="Verdana" font-size="13" lengthAdjust="spacing" textLength="154" x="243.5" y="642.6216">Unbinds from Recording</text><polygon fill="#FFFFFF" points="466.5,672.8203,476.5,676.8203,466.5,680.8203,470.5,676.8203" style="stroke:#FFFFFF;stroke-width:1.0;"/><line style="stroke:#FFFFFF;stroke-width:1.0;stroke-dasharray:2.0,2.0;" x1="236.5" x2="472.5" y1="676.8203" y2="676.8203"/><text fill="#FFFFFF" font-family="Verdana" font-size="13" lengthAdjust="spacing" textLength="102" x="243.5" y="671.7544">Destroys model</text><!--SRC=[jP91JiCm44NtFiLmW5w01LBLLAWI0UGe-xhsq5YAxMAFM_Nss75BKa25BbXc_F_t-_7SKOS6GHYz5Kn8SXxQW1v4W9P9r_SeIJiRe7OA-poksNl4YC1HEg-qtUOXPqgGs8Y0q90WpBE6iHPcimUeuRw41XAU0lYpazN3EK_d9LvwJEO05W-G37ijaV7FZABPQAi2a1i1Jf8cIShbEYGtPSsQBnSll5ezFwxpPx9gcHNKYNJUuSYIJQc_tazlB756U-yygfmmC7mhjXCn9EoBm4cvXJD6PEhndwMemNID_NNUDilgB-13b3fbvHldagBe- -FFP5_nfREaRRovmTdtFmzmqMD4F6ZghdG9v7RXXWvPVur_LJqjVqK_w3uj9eB2GDuTBvw2HskpHlOeRDnDW5fRTldDEpFPvb5GbRW09c_T1m00]--></g></svg>